<svg xmlns="http://www.w3.org/2000/svg" width="24.966" height="23.205" viewBox="0 0 24.966 23.205">
  <g id="Group_63" data-name="Group 63" transform="translate(-236.034 -359.398)">
    <path id="Path_114" data-name="Path 114" d="M650.083,8.937a7.025,7.025,0,0,1-3.994,1.811c-.194.024-.445.392-.5.637a4.442,4.442,0,0,0,3.776,5.35c.113.017-.619-.108-.454-.078a10.813,10.813,0,0,0,.6,3.255c.317,1.543.888,3.034,1.369,4.6l-2-.432c.1-.633.193-1.192.266-1.753.4-3.05-1.306-4.775-3.659-5.763a.787.787,0,0,0-1.1.665c-.034.231-.03.467-.05.824-.341-.122-.621-.216-.9-.323-1.309-.511-2.606-1.055-3.931-1.518a1.153,1.153,0,0,0-1.009.15,1.3,1.3,0,0,0-.119,1.026,11.88,11.88,0,0,0,.639,1.6c-2.8-.422-4.5,1.117-6.022,3a1.006,1.006,0,0,0,.026,1.461c1.165,1.4,2.327,2.785,4.273,3.267-.4.573-.777,1.052-1.083,1.574-.409.7-.245,1.215.529,1.433,1.255.354,2.537.609,3.809.9.16.037.324.056.48.082.068,1.36.275,1.542,1.646,1.382a13.491,13.491,0,0,0,1.968-.328,5.1,5.1,0,0,0,4.04-4.995c.016-.282.033-.564.058-.991.594.131,1.128.3,1.675.361a5.837,5.837,0,0,1,4.005,2.037,13.594,13.594,0,0,0,1.732,1.49c.45.38.926.448,1.314-.037.375-.469.149-.879-.256-1.237-.965-.851-1.95-1.682-2.869-2.581a11,11,0,0,1-3.371-7.585,8.7,8.7,0,0,0-.337-1.481,4.479,4.479,0,0,0,3.408-2.662,4.035,4.035,0,0,0,.207-2.86.915.915,0,0,0-.589-.557,6.866,6.866,0,0,1-3.586-1.73" transform="translate(-396.666 350.46)" fill="#998675"/>
  </g>
</svg>
