<svg id="Logo" xmlns="http://www.w3.org/2000/svg" xmlns:xlink="http://www.w3.org/1999/xlink" width="158" height="24" viewBox="0 0 158 24">
  <defs>
    <clipPath id="clip-path">
      <rect id="Rectangle_2" data-name="Rectangle 2" width="158" height="24" fill="none"/>
    </clipPath>
  </defs>
  <g id="Group_5" data-name="Group 5" transform="translate(0 1.272)">
    <path id="Path_1" data-name="Path 1" d="M0,18.671v3.4H3.211v14.7H6.705v-14.7H10v-3.4Z" transform="translate(0 -18.671)" fill="#373e51"/>
    <path id="Path_2" data-name="Path 2" d="M181.371,18.671h10v3.4h-3.3v14.7h-3.494v-14.7h-3.211Z" transform="translate(-169.02 -18.671)" fill="#373e51"/>
  </g>
  <g id="Group_2" data-name="Group 2">
    <g id="Group_1" data-name="Group 1" clip-path="url(#clip-path)">
      <path id="Path_3" data-name="Path 3" d="M635.36,17.041a2.469,2.469,0,0,1,1.4-.632c.068-.008.156-.137.174-.222a1.552,1.552,0,0,0-1.324-1.868c-.04-.006.217.038.159.027a3.761,3.761,0,0,0-.211-1.137c-.111-.539-.312-1.06-.48-1.608l.7.151c-.034.221-.068.416-.093.612a1.805,1.805,0,0,0,1.283,2.012.276.276,0,0,0,.386-.232c.012-.081.01-.163.018-.288.119.043.218.075.314.113.459.178.914.368,1.379.53a.406.406,0,0,0,.354-.052.45.45,0,0,0,.042-.358,4.14,4.14,0,0,0-.224-.558,2.185,2.185,0,0,0,2.112-1.048.35.35,0,0,0-.009-.51,2.893,2.893,0,0,0-1.5-1.141c.14-.2.273-.367.38-.55.144-.244.086-.424-.186-.5-.44-.124-.89-.213-1.336-.315-.056-.013-.113-.02-.168-.029-.024-.475-.1-.539-.577-.483a4.753,4.753,0,0,0-.69.114,1.781,1.781,0,0,0-1.417,1.744c-.006.1-.012.2-.02.346-.208-.046-.4-.1-.587-.126a2.05,2.05,0,0,1-1.4-.711,4.764,4.764,0,0,0-.607-.52c-.158-.133-.325-.157-.461.013s-.052.307.09.432c.338.3.684.588,1.006.9a3.836,3.836,0,0,1,1.182,2.649,3.023,3.023,0,0,0,.118.517,1.57,1.57,0,0,0-1.2.93,1.4,1.4,0,0,0-.073,1,.32.32,0,0,0,.206.195,2.412,2.412,0,0,1,1.258.6" transform="translate(-589.613 -8.331)" fill="#998675"/>
      <path id="Path_4" data-name="Path 4" d="M673.16,128.842a1.563,1.563,0,0,0,0,3.126,1.563,1.563,0,1,0,0-3.126" transform="translate(-625.87 -120.105)" fill="#998675"/>
      <path id="Path_5" data-name="Path 5" d="M625.889,130.3a1.575,1.575,0,0,0,2.547,1.193.246.246,0,0,0,.1-.352,2.056,2.056,0,0,1,0-1.74.246.246,0,0,0-.1-.352,1.512,1.512,0,0,0-1.649-.184,1.53,1.53,0,0,0-.9,1.435" transform="translate(-583.265 -119.969)" fill="#998675"/>
      <path id="Path_6" data-name="Path 6" d="M725.963,130.228a1.5,1.5,0,0,0-.857-1.36,1.525,1.525,0,0,0-1.594.1.25.25,0,0,0-.106.383,2.052,2.052,0,0,1,0,1.809.266.266,0,0,0,.124.4,1.57,1.57,0,0,0,2.431-1.335" transform="translate(-674.097 -119.962)" fill="#998675"/>
      <path id="Path_7" data-name="Path 7" d="M650.954,175.345a2.441,2.441,0,0,1-1.283.608c-.068.01-.154.117-.174.195a1.48,1.48,0,0,0,.491,1.6,1.465,1.465,0,0,0,1.684.221,1.5,1.5,0,0,0,.888-1.445,2.016,2.016,0,0,0-.036-.322.282.282,0,0,0-.3-.263,2.212,2.212,0,0,1-1.27-.591" transform="translate(-605.208 -163.455)" fill="#998675"/>
      <path id="Path_8" data-name="Path 8" d="M671.691,209.228a1.511,1.511,0,0,0,1.128,1.7,1.563,1.563,0,0,0,1.138-2.89c-.159-.086-.242-.091-.353.091a2.135,2.135,0,0,1-1.572,1.04l-.321.05c-.007,0-.014.008-.02.012" transform="translate(-625.921 -193.875)" fill="#998675"/>
      <path id="Path_9" data-name="Path 9" d="M587.009,131.63a2.249,2.249,0,0,1-.006-2.4,1.486,1.486,0,0,0-1.98.017,1.563,1.563,0,0,0-.1,2.252,1.532,1.532,0,0,0,2.089.13" transform="translate(-544.686 -120.126)" fill="#998675"/>
      <path id="Path_10" data-name="Path 10" d="M627.073,206.848a1.549,1.549,0,0,0-1.125,1.311,1.469,1.469,0,0,0,.73,1.528,1.522,1.522,0,0,0,1.7-.035.346.346,0,0,0,.17-.5,5.143,5.143,0,0,1-.165-.947c-.012-.072-.037-.181-.086-.2a2.37,2.37,0,0,1-1.226-1.153" transform="translate(-583.306 -192.822)" fill="#998675"/>
      <path id="Path_11" data-name="Path 11" d="M650.971,252.63a2.238,2.238,0,0,1-1.352.6c-.163.012-.153.119-.156.228a1.564,1.564,0,0,0,3.1.288c.012-.074.017-.149.025-.223.024-.2-.041-.3-.271-.3a2.264,2.264,0,0,1-1.349-.6" transform="translate(-605.233 -235.499)" fill="#998675"/>
      <path id="Path_12" data-name="Path 12" d="M705.011,176.35l-.867.487c.015.285.028.59.051.893a.191.191,0,0,0,.082.128,2.861,2.861,0,0,1,1.237,1.115,1.477,1.477,0,0,0,1.122-1.277,2.361,2.361,0,0,0,0-.374c-.027-.372-.067-.41-.438-.442a2.451,2.451,0,0,1-1.189-.53" transform="translate(-656.191 -164.392)" fill="#998675"/>
      <path id="Path_13" data-name="Path 13" d="M605.978,178.223c-.274-.148-.533-.3-.8-.426a.241.241,0,0,0-.2.033,2.311,2.311,0,0,1-1.267.409.271.271,0,0,0-.2.126,1.516,1.516,0,0,0,.953,1.923c.229-.256.447-.5.669-.746a.643.643,0,0,1,.162-.117c.2-.113.472-.176.583-.346s.045-.434.063-.657a1.632,1.632,0,0,1,.038-.2" transform="translate(-562.324 -165.73)" fill="#998675"/>
      <path id="Path_14" data-name="Path 14" d="M703.893,97.033l.82.467a2.4,2.4,0,0,1,1.642-.562,3.543,3.543,0,0,0-.066-.475,1.568,1.568,0,0,0-2.314-.913.264.264,0,0,0-.144.317c.05.373.044.754.062,1.165" transform="translate(-655.893 -88.862)" fill="#998675"/>
      <path id="Path_15" data-name="Path 15" d="M603.981,97.033a2.426,2.426,0,0,1,1.567.443.211.211,0,0,0,.175-.013c.243-.124.482-.258.688-.37.032-.418.067-.834.092-1.25a.215.215,0,0,0-.084-.137,1.575,1.575,0,0,0-1.635-.112,1.478,1.478,0,0,0-.8,1.439" transform="translate(-562.841 -88.948)" fill="#998675"/>
      <path id="Path_16" data-name="Path 16" d="M454.213,98.93c-.564.23-1.129.448-1.683.691-.327.143-.639.323-.954.493a.174.174,0,0,1-.193,0,12.558,12.558,0,0,0-2.609-1.138.447.447,0,0,1-.057-.028c.038-.032.07-.061.1-.087a20.665,20.665,0,0,1,2.2-1.476.826.826,0,0,1,.9,0,20.03,20.03,0,0,1,2.276,1.532c.01.008.017.02.012.014" transform="translate(-418.158 -90.657)" fill="#998675"/>
      <path id="Path_17" data-name="Path 17" d="M455.665,151.923a14.184,14.184,0,0,0-2.455-1.554,1.145,1.145,0,0,0,.125-.086,14.622,14.622,0,0,1,2.225-1.692c.056-.035.1-.068.177-.021a14.666,14.666,0,0,1,2.306,1.76c.012.012.022.026.045.053a14.105,14.105,0,0,0-2.424,1.539" transform="translate(-422.346 -138.473)" fill="#998675"/>
      <path id="Path_18" data-name="Path 18" d="M412.609,130.352c.024-.039.045-.076.069-.111a11.809,11.809,0,0,1,1.868-2.072.22.22,0,0,1,.173-.046,11.689,11.689,0,0,1,2.595,1.066.482.482,0,0,1,.042.031c-.034.025-.062.049-.093.069a14.8,14.8,0,0,0-2.237,1.76c-.045.044-.08.081-.157.046a10.845,10.845,0,0,0-2.216-.72.217.217,0,0,1-.043-.023" transform="translate(-384.51 -119.431)" fill="#998675"/>
      <path id="Path_19" data-name="Path 19" d="M496.147,129.183a12.114,12.114,0,0,1,1.983-.891c.217-.074.438-.141.659-.2a.191.191,0,0,1,.153.03,11.838,11.838,0,0,1,1.917,2.135c.014.021.025.043.04.068-.316.083-.628.148-.928.248-.44.147-.872.317-1.307.48-.059.022-.1.045-.163-.014a14.719,14.719,0,0,0-2.311-1.817.5.5,0,0,1-.043-.038" transform="translate(-462.359 -119.4)" fill="#998675"/>
      <path id="Path_20" data-name="Path 20" d="M427.037,180.7a13.336,13.336,0,0,1,2.415,1.5,11.859,11.859,0,0,0-1.762,1.844l-2.21-1.368a10.662,10.662,0,0,1,1.557-1.975" transform="translate(-396.504 -168.45)" fill="#998675"/>
      <path id="Path_21" data-name="Path 21" d="M494.7,182.627a13.107,13.107,0,0,1,2.342-1.46.133.133,0,0,1,.121.014,10.35,10.35,0,0,1,1.51,1.921c0,.007,0,.016,0,0l-2.209,1.367a11.922,11.922,0,0,0-1.765-1.843" transform="translate(-461.008 -168.874)" fill="#998675"/>
      <path id="Path_22" data-name="Path 22" d="M463.349,209.042a11.29,11.29,0,0,1,1.764-1.827,11.182,11.182,0,0,1,1.765,1.827l-1.764,1.719-1.764-1.72" transform="translate(-431.794 -193.164)" fill="#998675"/>
      <path id="Path_23" data-name="Path 23" d="M453.881,243.456a1.634,1.634,0,0,1-.21-.131,3.192,3.192,0,0,1-1.074-1.733,1.921,1.921,0,0,1,.066-.691.114.114,0,0,1,.035-.054c.108-.115.217-.229.337-.356a12.271,12.271,0,0,1,1.732,1.7l-.887,1.261" transform="translate(-421.759 -224.183)" fill="#998675"/>
      <path id="Path_24" data-name="Path 24" d="M495.062,243.184c-.294-.408-.562-.776-.824-1.147a.128.128,0,0,1,0-.12,12.093,12.093,0,0,1,1.708-1.673c.091.219.357.313.362.579a.989.989,0,0,1-.011.221,4,4,0,0,1-.8,1.724,4.529,4.529,0,0,1-.438.415" transform="translate(-460.567 -223.953)" fill="#998675"/>
      <path id="Path_25" data-name="Path 25" d="M420.959,95.758c.013-.025.026-.056.043-.086a4.233,4.233,0,0,1,1.284-1.371.279.279,0,0,1,.155-.06c.674.049,1.347.1,2.021.158l0,.047c-.026.019-.051.039-.078.056a14.576,14.576,0,0,0-2,1.416.249.249,0,0,1-.239.056c-.393-.078-.789-.144-1.191-.215" transform="translate(-392.291 -87.851)" fill="#998675"/>
      <path id="Path_26" data-name="Path 26" d="M505.989,94.469c.313-.041.614-.088.916-.119s.627-.049.94-.066a.312.312,0,0,1,.174.042,4.414,4.414,0,0,1,1.408,1.435.251.251,0,0,1,.017.04c-.407.076-.811.152-1.215.224a.148.148,0,0,1-.107-.031,15.409,15.409,0,0,0-2.1-1.484c-.01-.006-.017-.019-.036-.042" transform="translate(-471.531 -87.89)" fill="#998675"/>
      <path id="Path_27" data-name="Path 27" d="M414.559,172.527a3.865,3.865,0,0,1,.093-2.678,5.332,5.332,0,0,1,1.571.536,12.266,12.266,0,0,0-1.664,2.142" transform="translate(-386.144 -158.331)" fill="#998675"/>
      <path id="Path_28" data-name="Path 28" d="M538.867,169.853a4.076,4.076,0,0,1,.069,2.654l-1.6-2.135a5.266,5.266,0,0,1,1.531-.519" transform="translate(-500.743 -158.335)" fill="#998675"/>
      <path id="Path_29" data-name="Path 29" d="M526.789,222.072a3.425,3.425,0,0,1-.672,2.44L525.36,223a6.242,6.242,0,0,1,1.429-.932" transform="translate(-489.582 -207.013)" fill="#998675"/>
      <path id="Path_30" data-name="Path 30" d="M434.019,223.338a6.014,6.014,0,0,0-.783,1.611,4.983,4.983,0,0,1-.635-2.541,6.212,6.212,0,0,1,1.419.931" transform="translate(-403.128 -207.325)" fill="#998675"/>
      <path id="Path_31" data-name="Path 31" d="M455.393,82.449a6.647,6.647,0,0,1,4.472.01l-.882.117a4.7,4.7,0,0,1-1.271.009,1.34,1.34,0,0,0-.3.019,6.331,6.331,0,0,1-1.481-.091c-.178-.025-.357-.043-.535-.065" transform="translate(-424.38 -76.502)" fill="#998675"/>
      <path id="Path_32" data-name="Path 32" d="M412.082,124.2l-1.571,1.725c.023-.168.035-.337.071-.5a2.41,2.41,0,0,1,.671-1.239.262.262,0,0,1,.249-.084c.195.036.391.067.58.1" transform="translate(-382.555 -115.677)" fill="#998675"/>
      <path id="Path_33" data-name="Path 33" d="M546.436,125.877l-1.552-1.7c.247-.034.5-.074.759-.1.037,0,.09.048.121.085a3.139,3.139,0,0,1,.613,1.376c.025.116.041.234.059.343" transform="translate(-507.777 -115.66)" fill="#998675"/>
      <path id="Path_34" data-name="Path 34" d="M480.969,271.984c.136-.192.247-.351.36-.508.062-.085.128-.166.21-.272.156.219.306.423.447.633a.124.124,0,0,1-.007.119c-.133.132-.272.258-.414.38a.106.106,0,0,1-.1-.007c-.164-.109-.324-.223-.5-.345" transform="translate(-448.214 -252.814)" fill="#998675"/>
      <path id="Path_35" data-name="Path 35" d="M493.006.418a7.163,7.163,0,0,1,2.705,1.79s-.866-.6-.965-.106c-1.74-1.485-2.188-1.55-3.58-1.584-3.978-.1-5.868,4.506-6.365,5.05h-.547c-.05-.693,2.34-3.463,3.182-4.11,2.387-1.832,3.779-1.634,5.569-1.04" transform="translate(-451.276 0)" fill="#998675"/>
      <g id="Group_6" data-name="Group 6" transform="translate(60.767 0.067)">
        <path id="Path_36" data-name="Path 36" d="M909.843,9.43l-2.41,2.286A7.474,7.474,0,0,0,901.9,9.127a5.958,5.958,0,0,0-4.371,1.764,5.9,5.9,0,0,0-1.778,4.353,6.414,6.414,0,0,0,.785,3.2,5.626,5.626,0,0,0,2.224,2.2,6.482,6.482,0,0,0,3.2.8,6.609,6.609,0,0,0,2.741-.557,9.822,9.822,0,0,0,2.73-2.028l2.335,2.427a12.823,12.823,0,0,1-3.791,2.7,10.386,10.386,0,0,1-4.073.752,9.4,9.4,0,0,1-6.907-2.667,9.2,9.2,0,0,1-2.686-6.831,9.315,9.315,0,0,1,1.226-4.79,9.085,9.085,0,0,1,3.508-3.368,9.922,9.922,0,0,1,4.916-1.272,10.451,10.451,0,0,1,7.885,3.623" transform="translate(-892.309 -5.48)" fill="#373e51"/>
        <path id="Path_37" data-name="Path 37" d="M1188.048,77.058h3.359l0,13.329h-3.359V88.978a6.588,6.588,0,0,1-1.973,1.341,5.541,5.541,0,0,1-2.145.41,5.969,5.969,0,0,1-4.485-2,6.97,6.97,0,0,1-1.891-4.981,7.143,7.143,0,0,1,1.833-5.059,5.846,5.846,0,0,1,4.449-1.971,5.675,5.675,0,0,1,2.261.454,6.175,6.175,0,0,1,1.954,1.361Zm-3.532,2.743a3.4,3.4,0,0,0-2.588,1.1,3.941,3.941,0,0,0-1.031,2.811,3.983,3.983,0,0,0,1.047,2.843,3.4,3.4,0,0,0,2.581,1.116,3.466,3.466,0,0,0,2.624-1.1,4,4,0,0,0,1.043-2.872,3.884,3.884,0,0,0-1.041-2.818,3.512,3.512,0,0,0-2.636-1.079" transform="translate(-1158.126 -71.578)" fill="#373e51"/>
        <path id="Path_38" data-name="Path 38" d="M1427.122,77.153v1.47a6.319,6.319,0,0,1,1.969-1.359,5.69,5.69,0,0,1,2.264-.452,5.855,5.855,0,0,1,4.453,1.974,7.138,7.138,0,0,1,1.832,5.06,6.966,6.966,0,0,1-1.9,4.979,5.979,5.979,0,0,1-4.491,2,5.6,5.6,0,0,1-2.153-.411,6.564,6.564,0,0,1-1.98-1.342l0,6.285h-3.334l.007-18.2Zm3.53,2.746a3.514,3.514,0,0,0-2.633,1.077,3.875,3.875,0,0,0-1.047,2.817,3.988,3.988,0,0,0,1.045,2.873,3.484,3.484,0,0,0,2.632,1.1,3.421,3.421,0,0,0,2.59-1.114,3.976,3.976,0,0,0,1.053-2.842A3.935,3.935,0,0,0,1433.26,81a3.432,3.432,0,0,0-2.608-1.1" transform="translate(-1387.587 -71.67)" fill="#373e51"/>
        <path id="Path_39" data-name="Path 39" d="M1660.183.988a2.059,2.059,0,0,1,1.515.638,2.111,2.111,0,0,1,.631,1.544,2.085,2.085,0,0,1-.626,1.525,2.034,2.034,0,0,1-1.5.63,2.063,2.063,0,0,1-1.527-.644,2.146,2.146,0,0,1-.631-1.562,2.053,2.053,0,0,1,.626-1.507,2.058,2.058,0,0,1,1.509-.624M1658.5,6.476h3.359l0,13.329H1658.5Z" transform="translate(-1605.9 -0.988)" fill="#373e51"/>
        <path id="Path_40" data-name="Path 40" d="M1748.22,9.507h3.359l0,4.913h1.993V17.3h-1.993l0,10.45h-3.359l0-10.45h-1.722V14.419h1.723Z" transform="translate(-1688.324 -8.929)" fill="#373e51"/>
        <path id="Path_41" data-name="Path 41" d="M1878.2,77.308h3.359l-.005,13.329h-3.359V89.228a6.584,6.584,0,0,1-1.973,1.341,5.541,5.541,0,0,1-2.144.41,5.969,5.969,0,0,1-4.485-2,6.971,6.971,0,0,1-1.891-4.981,7.143,7.143,0,0,1,1.833-5.059,5.846,5.846,0,0,1,4.449-1.971,5.675,5.675,0,0,1,2.261.454,6.175,6.175,0,0,1,1.954,1.361Zm-3.532,2.743a3.4,3.4,0,0,0-2.588,1.1,3.941,3.941,0,0,0-1.031,2.811,3.982,3.982,0,0,0,1.047,2.843,3.4,3.4,0,0,0,2.581,1.116,3.466,3.466,0,0,0,2.624-1.1,4,4,0,0,0,1.043-2.872,3.884,3.884,0,0,0-1.041-2.818,3.511,3.511,0,0,0-2.636-1.079" transform="translate(-1801.275 -71.811)" fill="#373e51"/>
        <rect id="Rectangle_1" data-name="Rectangle 1" width="3.359" height="18.474" transform="translate(83.17 0.354)" fill="#373e51"/>
      </g>
      <path id="Path_42" data-name="Path 42" d="M2206.713,9.378h.728l1.45,3.753h-.746l-.3-.773h-1.538l-.306.773h-.746Zm.368.995-.506,1.288h1.009Z" transform="translate(-2055.079 -8.742)" fill="#998675"/>
      <path id="Path_43" data-name="Path 43" d="M2259.966,8.693l-.5.5a1.5,1.5,0,0,0-1.118-.505,1.28,1.28,0,0,0-.932.367,1.2,1.2,0,0,0-.376.893,1.233,1.233,0,0,0,.39.921,1.329,1.329,0,0,0,.962.378,1.184,1.184,0,0,0,.627-.156,1.094,1.094,0,0,0,.411-.487h-1.091V9.93h1.9l.005.158a1.83,1.83,0,0,1-.256.934,1.787,1.787,0,0,1-.664.673,1.9,1.9,0,0,1-.956.232,2.129,2.129,0,0,1-1.046-.254,1.857,1.857,0,0,1-.728-.723,2.01,2.01,0,0,1-.268-1.013,1.878,1.878,0,0,1,.494-1.3,1.953,1.953,0,0,1,1.527-.656,2.336,2.336,0,0,1,.92.181,2.107,2.107,0,0,1,.707.526" transform="translate(-2102.66 -7.444)" fill="#998675"/>
    </g>
  </g>
</svg>
