<svg xmlns="http://www.w3.org/2000/svg" width="181" height="28" viewBox="0 0 181 28">
    <defs>
        <clipPath id="6p2jfkkfya">
            <path data-name="Rectangle 2" style="fill:none" d="M0 0h181v28H0z"/>
        </clipPath>
    </defs>
    <g data-name="Group 5">
        <path data-name="Path 1" d="M0 18.671v3.9h3.69v16.9h4.016v-16.9h3.789v-3.9z" transform="translate(0 -17.21)" style="fill:#fff"/>
        <path data-name="Path 2" d="M181.371 18.671h11.495v3.9h-3.789v16.9h-4.015v-16.9h-3.69z" transform="translate(-167.177 -17.21)" style="fill:#fff"/>
    </g>
    <g data-name="Group 2">
        <g data-name="Group 1" style="clip-path:url(#6p2jfkkfya)">
            <path data-name="Path 3" d="M635.757 18.249a2.837 2.837 0 0 1 1.61-.727c.078-.01.179-.157.2-.255a1.783 1.783 0 0 0-1.522-2.147l.183.031a4.323 4.323 0 0 0-.243-1.306c-.128-.619-.358-1.218-.552-1.848l.807.173c-.039.254-.078.478-.107.7a2.075 2.075 0 0 0 1.475 2.313.317.317 0 0 0 .444-.267c.014-.093.012-.188.02-.331.137.049.25.087.361.13.527.205 1.05.423 1.584.609a.467.467 0 0 0 .407-.06.517.517 0 0 0 .048-.412 4.751 4.751 0 0 0-.257-.641 2.511 2.511 0 0 0 2.427-1.2.4.4 0 0 0-.01-.586 3.325 3.325 0 0 0-1.722-1.311c.161-.23.313-.422.436-.632.165-.28.1-.488-.213-.575-.506-.142-1.022-.244-1.535-.362-.064-.015-.13-.022-.194-.033-.027-.546-.111-.619-.663-.555a5.461 5.461 0 0 0-.793.131 2.047 2.047 0 0 0-1.628 2l-.023.4c-.239-.053-.455-.119-.675-.145a2.356 2.356 0 0 1-1.622-.815 5.472 5.472 0 0 0-.7-.6c-.181-.153-.373-.18-.53.015s-.06.353.1.5c.389.342.786.675 1.156 1.036a4.408 4.408 0 0 1 1.358 3.044 3.477 3.477 0 0 0 .136.594 1.8 1.8 0 0 0-1.374 1.068 1.613 1.613 0 0 0-.083 1.148.368.368 0 0 0 .237.224 2.772 2.772 0 0 1 1.445.694" transform="translate(-583.185 -8.241)" style="fill:#998675"/>
            <path data-name="Path 4" d="M673.391 128.842a1.8 1.8 0 0 0 0 3.592 1.8 1.8 0 1 0 0-3.592" transform="translate(-619.047 -118.802)" style="fill:#998675"/>
            <path data-name="Path 5" d="M625.889 130.534a1.81 1.81 0 0 0 2.927 1.371.283.283 0 0 0 .111-.4 2.364 2.364 0 0 1 0-2 .283.283 0 0 0-.114-.4 1.738 1.738 0 0 0-1.895-.212 1.758 1.758 0 0 0-1.029 1.649" transform="translate(-576.907 -118.667)" style="fill:#998675"/>
            <path data-name="Path 6" d="M726.352 130.457a1.718 1.718 0 0 0-.985-1.563 1.753 1.753 0 0 0-1.832.116.287.287 0 0 0-.122.44 2.358 2.358 0 0 1 0 2.079.306.306 0 0 0 .143.463 1.8 1.8 0 0 0 2.793-1.534" transform="translate(-666.748 -118.661)" style="fill:#998675"/>
            <path data-name="Path 7" d="M651.181 175.345a2.8 2.8 0 0 1-1.474.7c-.078.011-.177.135-.2.224a1.7 1.7 0 0 0 .564 1.837 1.683 1.683 0 0 0 1.935.254 1.718 1.718 0 0 0 1.021-1.661 2.321 2.321 0 0 0-.041-.37.324.324 0 0 0-.345-.3 2.543 2.543 0 0 1-1.459-.68" transform="translate(-598.61 -161.681)" style="fill:#998675"/>
            <path data-name="Path 8" d="M671.7 209.414a1.737 1.737 0 0 0 1.3 1.951 1.8 1.8 0 0 0 1.307-3.321c-.183-.1-.278-.1-.405.1a2.453 2.453 0 0 1-1.807 1.195l-.369.057c-.008 0-.016.009-.023.014" transform="translate(-619.097 -191.771)" style="fill:#998675"/>
            <path data-name="Path 9" d="M587.385 132.042a2.585 2.585 0 0 1-.007-2.757 1.708 1.708 0 0 0-2.275.019 1.8 1.8 0 0 0-.118 2.588 1.761 1.761 0 0 0 2.4.149" transform="translate(-538.748 -118.822)" style="fill:#998675"/>
            <path data-name="Path 10" d="M627.243 206.848a1.78 1.78 0 0 0-1.292 1.506 1.688 1.688 0 0 0 .839 1.756 1.748 1.748 0 0 0 1.954-.041.4.4 0 0 0 .2-.577 5.917 5.917 0 0 1-.189-1.088c-.014-.083-.042-.208-.1-.232a2.724 2.724 0 0 1-1.408-1.325" transform="translate(-576.947 -190.729)" style="fill:#998675"/>
            <path data-name="Path 11" d="M651.2 252.63a2.571 2.571 0 0 1-1.554.695c-.187.013-.176.136-.18.262a1.8 1.8 0 0 0 3.566.331c.014-.085.019-.171.029-.256.028-.233-.047-.339-.312-.344a2.6 2.6 0 0 1-1.55-.688" transform="translate(-598.635 -232.943)" style="fill:#998675"/>
            <path data-name="Path 12" d="m705.14 176.35-1 .56c.017.328.032.677.058 1.026a.219.219 0 0 0 .094.147 3.287 3.287 0 0 1 1.421 1.281 1.7 1.7 0 0 0 1.29-1.468 2.73 2.73 0 0 0 0-.43c-.031-.427-.077-.471-.5-.508a2.816 2.816 0 0 1-1.366-.609" transform="translate(-649.037 -162.608)" style="fill:#998675"/>
            <path data-name="Path 13" d="M606.36 178.288c-.315-.17-.613-.34-.92-.49a.277.277 0 0 0-.227.038 2.656 2.656 0 0 1-1.456.47.311.311 0 0 0-.233.145 1.742 1.742 0 0 0 1.095 2.21c.263-.294.513-.578.769-.857a.743.743 0 0 1 .186-.134c.23-.13.543-.2.67-.4s.052-.5.072-.755a1.9 1.9 0 0 1 .043-.229" transform="translate(-556.194 -163.932)" style="fill:#998675"/>
            <path data-name="Path 14" d="m703.9 97.288.942.537a2.762 2.762 0 0 1 1.888-.646 4.078 4.078 0 0 0-.076-.546A1.8 1.8 0 0 0 704 95.585a.3.3 0 0 0-.166.364c.058.429.051.867.071 1.339" transform="translate(-648.743 -87.898)" style="fill:#998675"/>
            <path data-name="Path 15" d="M603.983 97.273a2.788 2.788 0 0 1 1.8.509.242.242 0 0 0 .2-.014c.28-.142.553-.3.79-.425.037-.48.077-.958.106-1.437a.247.247 0 0 0-.1-.158 1.81 1.81 0 0 0-1.879-.128 1.7 1.7 0 0 0-.923 1.654" transform="translate(-556.705 -87.983)" style="fill:#998675"/>
            <path data-name="Path 16" d="M455.033 99.181c-.649.264-1.3.515-1.934.794-.376.165-.734.372-1.1.566a.2.2 0 0 1-.222 0 14.432 14.432 0 0 0-3-1.308.515.515 0 0 1-.066-.032c.044-.037.08-.07.119-.1a23.739 23.739 0 0 1 2.531-1.7.949.949 0 0 1 1.037 0 23.021 23.021 0 0 1 2.615 1.76c.012.009.019.023.014.016" transform="translate(-413.599 -89.673)" style="fill:#998675"/>
            <path data-name="Path 17" d="M456.031 152.426a16.3 16.3 0 0 0-2.821-1.786 1.317 1.317 0 0 0 .144-.1 16.806 16.806 0 0 1 2.557-1.945c.065-.04.116-.078.2-.024a16.856 16.856 0 0 1 2.65 2.023c.014.013.025.03.051.061a16.208 16.208 0 0 0-2.785 1.769" transform="translate(-417.742 -136.971)" style="fill:#998675"/>
            <path data-name="Path 18" d="M412.609 130.685c.028-.045.052-.088.08-.128a13.571 13.571 0 0 1 2.146-2.381.253.253 0 0 1 .2-.053 13.432 13.432 0 0 1 2.982 1.225.558.558 0 0 1 .048.035c-.039.029-.071.056-.107.079a17 17 0 0 0-2.571 2.023c-.052.05-.091.093-.18.053a12.465 12.465 0 0 0-2.547-.827.247.247 0 0 1-.049-.026" transform="translate(-380.318 -118.135)" style="fill:#998675"/>
            <path data-name="Path 19" d="M496.147 129.347a13.921 13.921 0 0 1 2.279-1.023c.25-.086.5-.162.758-.232a.22.22 0 0 1 .176.035 13.609 13.609 0 0 1 2.2 2.453c.016.024.029.05.046.079-.363.1-.722.17-1.067.285-.506.168-1 .365-1.5.552-.068.025-.118.051-.188-.016a16.915 16.915 0 0 0-2.656-2.088.563.563 0 0 1-.049-.044" transform="translate(-457.318 -118.104)" style="fill:#998675"/>
            <path data-name="Path 20" d="M427.269 180.7a15.328 15.328 0 0 1 2.776 1.722 13.629 13.629 0 0 0-2.025 2.12l-2.539-1.573a12.254 12.254 0 0 1 1.789-2.269" transform="translate(-392.182 -166.622)" style="fill:#998675"/>
            <path data-name="Path 21" d="M494.7 182.846a15.061 15.061 0 0 1 2.692-1.678.153.153 0 0 1 .139.016 11.892 11.892 0 0 1 1.735 2.208c0 .008 0 .019 0 0l-2.538 1.571a13.707 13.707 0 0 0-2.028-2.118" transform="translate(-455.982 -167.042)" style="fill:#998675"/>
            <path data-name="Path 22" d="M463.349 209.314a12.976 12.976 0 0 1 2.027-2.1 12.855 12.855 0 0 1 2.029 2.1l-2.028 1.976-2.028-1.976" transform="translate(-427.087 -191.067)" style="fill:#998675"/>
            <path data-name="Path 23" d="M454.075 243.9a1.871 1.871 0 0 1-.241-.151 3.668 3.668 0 0 1-1.234-1.992 2.207 2.207 0 0 1 .075-.794.132.132 0 0 1 .04-.062l.388-.409a14.1 14.1 0 0 1 1.991 1.958l-1.019 1.449" transform="translate(-417.161 -221.75)" style="fill:#998675"/>
            <path data-name="Path 24" d="M495.187 243.622c-.338-.469-.646-.891-.947-1.318a.147.147 0 0 1 0-.138 13.9 13.9 0 0 1 1.963-1.922c.1.251.411.359.416.665a1.135 1.135 0 0 1-.013.254 4.594 4.594 0 0 1-.918 1.982 5.206 5.206 0 0 1-.5.477" transform="translate(-455.546 -221.523)" style="fill:#998675"/>
            <path data-name="Path 25" d="M420.959 95.984c.014-.029.03-.065.049-.1a4.865 4.865 0 0 1 1.476-1.575.321.321 0 0 1 .178-.069c.774.056 1.548.12 2.322.181v.053c-.03.021-.058.045-.09.064a16.745 16.745 0 0 0-2.3 1.627.286.286 0 0 1-.274.064c-.452-.09-.906-.165-1.368-.247" transform="translate(-388.015 -86.897)" style="fill:#998675"/>
            <path data-name="Path 26" d="M505.989 94.5c.36-.047.706-.1 1.053-.137s.72-.057 1.081-.076a.359.359 0 0 1 .2.049 5.073 5.073 0 0 1 1.618 1.649.293.293 0 0 1 .02.046c-.468.087-.932.175-1.4.258a.17.17 0 0 1-.123-.035 17.7 17.7 0 0 0-2.412-1.706c-.012-.007-.019-.022-.042-.048" transform="translate(-466.39 -86.936)" style="fill:#998675"/>
            <path data-name="Path 27" d="M414.589 172.927a4.442 4.442 0 0 1 .107-3.078 6.127 6.127 0 0 1 1.806.616 14.1 14.1 0 0 0-1.912 2.462" transform="translate(-381.934 -156.613)" style="fill:#998675"/>
            <path data-name="Path 28" d="M539.1 169.853a4.684 4.684 0 0 1 .08 3.05l-1.839-2.454a6.05 6.05 0 0 1 1.759-.6" transform="translate(-495.284 -156.617)" style="fill:#998675"/>
            <path data-name="Path 29" d="M527 222.072a3.936 3.936 0 0 1-.772 2.8l-.87-1.733a7.173 7.173 0 0 1 1.642-1.067" transform="translate(-484.245 -204.767)" style="fill:#998675"/>
            <path data-name="Path 30" d="M434.232 223.476a6.914 6.914 0 0 0-.9 1.851 5.726 5.726 0 0 1-.73-2.92 7.138 7.138 0 0 1 1.63 1.069" transform="translate(-398.733 -205.076)" style="fill:#998675"/>
            <path data-name="Path 31" d="M455.393 82.506a7.639 7.639 0 0 1 5.139.012l-1.013.134a5.4 5.4 0 0 1-1.46.01 1.54 1.54 0 0 0-.349.022 7.276 7.276 0 0 1-1.7-.1c-.2-.029-.41-.05-.615-.074" transform="translate(-419.754 -75.672)" style="fill:#998675"/>
            <path data-name="Path 32" d="m412.316 124.211-1.805 1.982c.027-.193.041-.387.082-.575a2.77 2.77 0 0 1 .771-1.424.3.3 0 0 1 .286-.1c.224.041.449.077.666.113" transform="translate(-378.384 -114.422)" style="fill:#998675"/>
            <path data-name="Path 33" d="m546.668 126.146-1.784-1.957c.284-.04.577-.085.872-.116.043 0 .1.055.139.1a3.608 3.608 0 0 1 .7 1.581c.029.133.047.269.068.394" transform="translate(-502.241 -114.404)" style="fill:#998675"/>
            <path data-name="Path 34" d="m480.969 272.1.414-.583c.071-.1.148-.191.241-.312.18.252.351.486.514.727a.142.142 0 0 1-.008.136c-.152.152-.312.3-.476.437a.122.122 0 0 1-.111-.008c-.188-.125-.372-.256-.575-.4" transform="translate(-443.328 -250.071)" style="fill:#998675"/>
            <path data-name="Path 35" d="M494.312.481a8.231 8.231 0 0 1 3.109 2.057s-.995-.691-1.109-.122C494.312.708 493.8.634 492.2.595c-4.572-.114-6.743 5.178-7.314 5.8h-.629c-.057-.8 2.689-3.979 3.657-4.723 2.743-2.105 4.343-1.878 6.4-1.195" transform="translate(-446.356)" style="fill:#998675"/>
            <g data-name="Group 6">
                <path data-name="Path 36" d="M912.459 9.971 909.69 12.6a8.589 8.589 0 0 0-6.356-2.976 6.847 6.847 0 0 0-5.023 2.027 6.778 6.778 0 0 0-2.043 5 7.371 7.371 0 0 0 .9 3.679 6.466 6.466 0 0 0 2.556 2.523 7.449 7.449 0 0 0 3.673.917 7.594 7.594 0 0 0 3.15-.64 11.286 11.286 0 0 0 3.137-2.331l2.683 2.79a14.735 14.735 0 0 1-4.356 3.1 11.935 11.935 0 0 1-4.68.864 10.8 10.8 0 0 1-7.938-3.065 10.576 10.576 0 0 1-3.086-7.85 10.705 10.705 0 0 1 1.409-5.5 10.44 10.44 0 0 1 4.031-3.87 11.4 11.4 0 0 1 5.653-1.461 12.01 12.01 0 0 1 9.061 4.164" transform="translate(-822.477 -5.354)" style="fill:#fff"/>
                <path data-name="Path 37" d="M1189.614 77.109h3.86l-.006 15.317h-3.86v-1.619a7.571 7.571 0 0 1-2.267 1.541 6.368 6.368 0 0 1-2.464.471 6.859 6.859 0 0 1-5.154-2.3 8.01 8.01 0 0 1-2.173-5.724 8.208 8.208 0 0 1 2.106-5.814 6.717 6.717 0 0 1 5.113-2.265 6.521 6.521 0 0 1 2.6.522 7.1 7.1 0 0 1 2.245 1.564zm-4.059 3.152a3.908 3.908 0 0 0-2.974 1.259 4.53 4.53 0 0 0-1.185 3.231 4.576 4.576 0 0 0 1.2 3.267 3.911 3.911 0 0 0 2.966 1.282 3.984 3.984 0 0 0 3.016-1.259 4.594 4.594 0 0 0 1.2-3.3 4.464 4.464 0 0 0-1.2-3.239 4.035 4.035 0 0 0-3.029-1.24" transform="translate(-1085.396 -70.735)" style="fill:#fff"/>
                <path data-name="Path 38" d="M1427.62 77.2v1.689a7.261 7.261 0 0 1 2.263-1.562 6.539 6.539 0 0 1 2.6-.52 6.728 6.728 0 0 1 5.117 2.269 8.2 8.2 0 0 1 2.1 5.815 8.007 8.007 0 0 1-2.179 5.722 6.871 6.871 0 0 1-5.161 2.3 6.436 6.436 0 0 1-2.474-.473 7.541 7.541 0 0 1-2.276-1.542v7.222h-3.832l.008-20.921zm4.057 3.155a4.039 4.039 0 0 0-3.026 1.238 4.454 4.454 0 0 0-1.2 3.238 4.584 4.584 0 0 0 1.2 3.3 4 4 0 0 0 3.025 1.261 3.931 3.931 0 0 0 2.977-1.28 4.569 4.569 0 0 0 1.21-3.266 4.522 4.522 0 0 0-1.187-3.231 3.944 3.944 0 0 0-3-1.261" transform="translate(-1312.356 -70.826)" style="fill:#fff"/>
                <path data-name="Path 39" d="M1660.5.988a2.366 2.366 0 0 1 1.741.733 2.425 2.425 0 0 1 .725 1.774 2.4 2.4 0 0 1-.719 1.752 2.337 2.337 0 0 1-1.72.724 2.371 2.371 0 0 1-1.755-.74 2.465 2.465 0 0 1-.725-1.8 2.358 2.358 0 0 1 .719-1.731 2.366 2.366 0 0 1 1.734-.712m-1.932 6.307h3.86l-.006 15.317h-3.86z" transform="translate(-1528.289 -.911)" style="fill:#fff"/>
                <path data-name="Path 40" d="M1748.477 9.507h3.86v5.645h2.29v3.308h-2.29v12.009h-3.86V18.46h-1.979v-3.308h1.98z" transform="translate(-1609.814 -8.766)" style="fill:#fff"/>
                <path data-name="Path 41" d="M1879.763 77.359h3.86l-.006 15.317h-3.86v-1.619a7.569 7.569 0 0 1-2.267 1.541 6.369 6.369 0 0 1-2.464.471 6.859 6.859 0 0 1-5.154-2.3 8.011 8.011 0 0 1-2.173-5.724 8.208 8.208 0 0 1 2.106-5.814 6.717 6.717 0 0 1 5.113-2.265 6.521 6.521 0 0 1 2.6.522 7.094 7.094 0 0 1 2.245 1.564zm-4.059 3.152a3.908 3.908 0 0 0-2.974 1.259 4.529 4.529 0 0 0-1.184 3.23 4.577 4.577 0 0 0 1.2 3.267 3.911 3.911 0 0 0 2.966 1.282 3.984 3.984 0 0 0 3.016-1.259 4.6 4.6 0 0 0 1.2-3.3 4.464 4.464 0 0 0-1.2-3.239 4.036 4.036 0 0 0-3.029-1.24" transform="translate(-1721.533 -70.966)" style="fill:#fff"/>
                <path data-name="Rectangle 1" transform="translate(165.41 .484)" style="fill:#fff" d="M0 0h3.86v21.23H0z"/>
            </g>
            <path data-name="Path 42" d="M2206.93 9.378h.836l1.666 4.312h-.857l-.339-.888h-1.767l-.352.888h-.857zm.423 1.143-.581 1.48h1.159z" transform="translate(-2032.676 -8.647)" style="fill:#998675"/>
            <path data-name="Path 43" d="m2260.511 8.8-.581.572a1.72 1.72 0 0 0-1.285-.58 1.472 1.472 0 0 0-1.072.422 1.381 1.381 0 0 0-.431 1.026 1.417 1.417 0 0 0 .448 1.058 1.527 1.527 0 0 0 1.105.434 1.362 1.362 0 0 0 .721-.179 1.259 1.259 0 0 0 .473-.56h-1.254v-.773h2.179l.006.182a2.1 2.1 0 0 1-.294 1.073 2.055 2.055 0 0 1-.763.774 2.181 2.181 0 0 1-1.1.267 2.447 2.447 0 0 1-1.2-.292 2.135 2.135 0 0 1-.836-.831 2.31 2.31 0 0 1-.308-1.164 2.157 2.157 0 0 1 .568-1.489 2.244 2.244 0 0 1 1.755-.753 2.684 2.684 0 0 1 1.057.208 2.428 2.428 0 0 1 .813.6" transform="translate(-2079.738 -7.364)" style="fill:#998675"/>
        </g>
    </g>
</svg>
